<svg xmlns="http://www.w3.org/2000/svg"  viewBox="0 0 48 48" width="48px" height="48px" fill-rule="evenodd" clip-rule="evenodd"><linearGradient id="Yrd_1pNR0YpaGuYeMFJWHa" x1="8.602" x2="38.283" y1="6.218" y2="40.494" gradientUnits="userSpaceOnUse"><stop offset=".002" stop-color="#9c55d4"/><stop offset=".003" stop-color="#8c0bbd"/><stop offset=".559" stop-color="#7d0bbd"/><stop offset="1" stop-color="#6e0bbd"/></linearGradient><circle cx="24" cy="24" r="20" fill="url(#Yrd_1pNR0YpaGuYeMFJWHa)" fill-rule="evenodd" clip-rule="evenodd"/><g opacity=".07"><path d="M22.66,15.91h-1.654c-0.551,0-1,0.449-1,1v1.16c0,0.551,0.449,1,1,1h1.654c0.551,0,1-0.449,1-1v-1.16 C23.66,16.358,23.211,15.91,22.66,15.91z"/><path d="M27,15.91h-1.654c-0.551,0-1,0.449-1,1v1.16c0,0.551,0.449,1,1,1H27c0.551,0,1-0.449,1-1v-1.16 C28,16.358,27.551,15.91,27,15.91z"/></g><path d="M31.75,16.925h-2.5H28.5V16.91c0-0.827-0.673-1.5-1.5-1.5h-1.654c-0.591,0-1.099,0.347-1.343,0.845	c-0.244-0.498-0.752-0.845-1.343-0.845h-1.654c-0.827,0-1.5,0.673-1.5,1.5v1.16c0,0.216,0.048,0.42,0.13,0.606H18.5	c-1.792,0-3.25,1.458-3.25,3.25v1.5v1h1h2.5h0.771v6.871c0,0.717,0.583,1.3,1.3,1.3c0.161,0,0.319-0.03,0.47-0.088l1.826-0.707	c0.338-0.131,0.61-0.38,0.777-0.689v0.184c0,0.717,0.583,1.3,1.3,1.3c0.161,0,0.319-0.03,0.47-0.088l1.826-0.707	c0.573-0.222,0.958-0.784,0.958-1.399v-7.227H29.5c1.792,0,3.25-1.458,3.25-3.25v-2v-1H31.75z" opacity=".05"/><path d="M31.75,17.425h-2.5h-0.5v0.5v1.25H18.5c-1.516,0-2.75,1.234-2.75,2.75v1.5v0.5h0.5h2.5h0.5v-0.5	v-0.75h0.771v8.621c0,0.441,0.359,0.8,0.8,0.8c0.099,0,0.196-0.018,0.289-0.054l1.825-0.707c0.382-0.148,0.639-0.523,0.639-0.932	v-7.727h0.819v8.621c0,0.441,0.359,0.8,0.8,0.8c0.099,0,0.196-0.018,0.289-0.054l1.826-0.707c0.382-0.148,0.639-0.523,0.639-0.932	v-7.727H29.5c1.516,0,2.75-1.234,2.75-2.75v-2v-0.5H31.75z" opacity=".07"/><path d="M24,9C15.729,9,9,15.729,9,24s6.729,15,15,15c8.271,0,15-6.729,15-15S32.271,9,24,9z M24,35	c-6.065,0-11-4.935-11-11s4.935-11,11-11s11,4.935,11,11S30.065,35,24,35z" opacity=".07"/><path d="M24,8.5C15.453,8.5,8.5,15.453,8.5,24S15.453,39.5,24,39.5c8.547,0,15.5-6.953,15.5-15.5	S32.547,8.5,24,8.5z M24,34.5c-5.79,0-10.5-4.71-10.5-10.5S18.21,13.5,24,13.5S34.5,18.21,34.5,24S29.79,34.5,24,34.5z" opacity=".05"/><path fill="#ffc107" d="M24,38.5c-7.995,0-14.5-6.505-14.5-14.5S16.005,9.5,24,9.5S38.5,16.005,38.5,24S31.995,38.5,24,38.5 z M24,12.5c-6.341,0-11.5,5.159-11.5,11.5S17.659,35.5,24,35.5S35.5,30.341,35.5,24S30.341,12.5,24,12.5z"/><path fill="#ffc107" d="M22.66,18.569h-1.654c-0.276,0-0.5-0.224-0.5-0.5v-1.16c0-0.276,0.224-0.5,0.5-0.5h1.654	c0.276,0,0.5,0.224,0.5,0.5v1.16C23.16,18.345,22.936,18.569,22.66,18.569z"/><path fill="#ffc107" d="M27,18.569h-1.654c-0.276,0-0.5-0.224-0.5-0.5v-1.16c0-0.276,0.224-0.5,0.5-0.5H27	c0.276,0,0.5,0.224,0.5,0.5v1.16C27.5,18.345,27.276,18.569,27,18.569z"/><path fill="#ffc107" d="M29.25,17.925v1.75H18.5c-1.241,0-2.25,1.009-2.25,2.25v1.5h2.5v-1.25h1.771v9.121	c0,0.211,0.212,0.356,0.408,0.28l1.825-0.707c0.193-0.075,0.319-0.26,0.319-0.466v-8.227h1.819v9.121	c0,0.211,0.212,0.356,0.408,0.28l1.826-0.707c0.192-0.075,0.319-0.26,0.319-0.466v-8.227H29.5c1.241,0,2.25-1.009,2.25-2.25v-2	H29.25z"/></svg>