<svg width="17" height="16" viewBox="0 0 17 16" fill="none" xmlns="http://www.w3.org/2000/svg">
<path d="M16.2672 1.11412C16.2538 0.884768 16.1566 0.668318 15.9942 0.505864C15.8317 0.343411 15.6153 0.246265 15.3859 0.232871C12.2922 0.05084 9.55858 0.415684 7.26093 1.31647C5.06249 2.17818 3.36796 3.51412 2.35858 5.17975C0.982022 7.45397 0.978897 10.2149 2.32343 12.8508L0.961709 14.2126C0.874503 14.2998 0.805328 14.4033 0.758132 14.5172C0.710937 14.6312 0.686646 14.7533 0.686646 14.8766C0.686646 14.9999 0.710937 15.1221 0.758132 15.236C0.805328 15.3499 0.874503 15.4535 0.961709 15.5407C1.13783 15.7168 1.3767 15.8157 1.62577 15.8157C1.7491 15.8157 1.87122 15.7915 1.98516 15.7443C2.0991 15.6971 2.20263 15.6279 2.28983 15.5407L3.65155 14.179C4.95937 14.8462 6.29843 15.1829 7.59296 15.1829C8.9082 15.187 10.199 14.8274 11.3226 14.1438C12.9883 13.1344 14.3242 11.4391 15.1859 9.24146C16.0844 6.94225 16.4492 4.20787 16.2672 1.11412ZM10.3484 12.5376C8.7789 13.4883 6.93749 13.5602 5.0578 12.7657L11.6625 6.161C11.7497 6.07379 11.8189 5.97026 11.8661 5.85632C11.9133 5.74238 11.9376 5.62026 11.9376 5.49693C11.9376 5.37361 11.9133 5.25149 11.8661 5.13755C11.8189 5.02361 11.7497 4.92008 11.6625 4.83287C11.5753 4.74567 11.4718 4.67649 11.3578 4.62929C11.2439 4.5821 11.1218 4.55781 10.9984 4.55781C10.8751 4.55781 10.753 4.5821 10.639 4.62929C10.5251 4.67649 10.4216 4.74567 10.3344 4.83287L3.73437 11.4422C2.94218 9.56725 3.01405 7.72115 3.96874 6.15162C5.60233 3.45396 9.47968 1.95475 14.4375 2.06959C14.5453 7.02584 13.0461 10.904 10.3484 12.5376Z" fill="black"/>
</svg>
